<?xml version="1.0" encoding="utf-8"?>
<!-- Generator: Adobe Illustrator 25.1.0, SVG Export Plug-In . SVG Version: 6.00 Build 0)  -->
<svg version="1.1" id="レイヤー_1" xmlns="http://www.w3.org/2000/svg" xmlns:xlink="http://www.w3.org/1999/xlink" x="0px"
	 y="0px" viewBox="0 0 680.3 110.6" style="enable-background:new 0 0 680.3 110.6;" xml:space="preserve">
<style type="text/css">
	.st0{fill:#E72D22;}
</style>
<g>
	<path class="st0" d="M2.1,47.7v55.5c0,2.2,1.9,4.1,4.1,4.1h43.2c1.1,0,2-0.9,2-2l-0.5-1.2L5.6,46.6c-0.7-0.9-2-1-2.9-0.4
		C2.4,46.5,2.1,47.1,2.1,47.7"/>
	<path class="st0" d="M555.4,40.5c0-1.1,0.9-2,2-2h24.7c1.1,0,2,0.9,2,2v37.1c0,3.4,2.7,6.1,6.1,6.1h85.4h0.4
		c1.1,0.2,1.9,1.2,1.6,2.4c-2.1,12.2-12.9,21.2-25.3,21.2h-71.4c-14.2,0-25.7-11.5-25.7-25.7V40.5"/>
	<path class="st0" d="M643.9,28.1h-85.4h-0.4c-1.1-0.2-1.9-1.2-1.6-2.4c2.1-12.2,12.9-21.2,25.3-21.2h-0.6h72
		C667.5,4.5,679,16,679,30.2v41.2c0,1.1-0.9,2-2,2h-24.7c-1.1,0-2-0.9-2-2V34.4C650.2,31,647.3,28.1,643.9,28.1"/>
	<path class="st0" d="M454.7,4.5H536c2.2,0,4.1,1.9,4.1,4.1v17.5c0,1.1-0.9,2-2,2h-74c-3.4,0-6.1,2.7-6.1,6.1v43.2
		c0,3.4,2.7,6.1,6.1,6.1H538c1.1,0,2,0.9,2,2V103c0,2.2-1.9,4.1-4.1,4.1h-81.3c-14.2,0-25.7-11.5-25.7-25.7V30.2
		C429,16,440.5,4.5,454.7,4.5"/>
	<path class="st0" d="M301.4,25.7c-0.2,1.1,0.5,2.2,1.6,2.4h0.4h106c1.1,0,2.1-0.9,2.1-2V8.6c0-2.2-1.9-4.1-4.1-4.1h-80.6
		C314.3,4.5,303.6,13.5,301.4,25.7"/>
	<path class="st0" d="M302.4,41.5h107c1.1,0,2.1,0.9,2.1,2v18.5c0,1.1-0.9,2-2.1,2h-80.3v13.4c0,3.4,2.7,6.1,6.1,6.1h74.1
		c1.1,0,2.1,0.9,2.1,2v17.5c0,2.2-1.9,4.1-4.1,4.1h-81.3c-14.2,0-25.7-11.5-25.7-25.7V43.6C300.4,42.5,301.3,41.5,302.4,41.5"/>
	<path class="st0" d="M230,64.2c-1.1,0-2,0.9-2,2l0.4,1.2l29.5,37.9c1,1.2,2.5,2,4.1,2h28.1c1.1,0,2-0.9,2-2l-0.5-1.2l-31.5-39.8
		H230"/>
	<path class="st0" d="M175.9,28.1c-1.1,0-2-0.9-2-2V8.6c0-2.2,1.9-4.1,4.1-4.1h57.5C264,4.5,287,27.6,287,55.9v6.1c0,1.1-0.9,2-2,2
		h-24.7v-5.1c0-17.1-13.9-30.8-30.8-30.8L175.9,28.1"/>
	<path class="st0" d="M173.9,40.5v62.8c0,2.2,1.9,4.1,4.1,4.1h20.6c2.2,0,4.1-1.9,4.1-4.1V40.5c0-1.1-0.9-2-2.1-2h-24.7
		C174.7,38.5,173.9,39.3,173.9,40.5"/>
	<path class="st0" d="M126.6,103.3V8.6c0-2.2,1.9-4.1,4.1-4.1h20.6c2.2,0,4.1,1.9,4.1,4.1v94.6c0,2.2-1.9,4.1-4.1,4.1h-20.6
		C128.4,107.4,126.6,105.5,126.6,103.3"/>
	<path class="st0" d="M74.9,103.4c6.2,8.1,18,9.5,26,3.2c4.5-3.5,7.1-8.9,7.1-14.6V8.6c0-2.2-1.9-4.1-4.1-4.1H84.3
		c-2.2,0-4.1,1.9-4.1,4.1v52.4l1.4,7.9l-0.4,1l-1.5-0.2L32.6,7c-1.1-1.5-3-2.5-4.9-2.5H2c-1.1,0-2,0.9-2,2l0.5,1.2L74.9,103.4"/>
</g>
</svg>
